<?xml version="1.0" encoding="UTF-8" standalone="no"?>
<!-- Created with Inkscape (http://www.inkscape.org/) -->

<svg
   xmlns:dc="http://purl.org/dc/elements/1.1/"
   xmlns:cc="http://creativecommons.org/ns#"
   xmlns:rdf="http://www.w3.org/1999/02/22-rdf-syntax-ns#"
   xmlns:svg="http://www.w3.org/2000/svg"
   xmlns="http://www.w3.org/2000/svg"
   xmlns:sodipodi="http://sodipodi.sourceforge.net/DTD/sodipodi-0.dtd"
   xmlns:inkscape="http://www.inkscape.org/namespaces/inkscape"
   width="600.00061"
   height="302.28629"
   viewBox="0 0 724.84674 302.28639"
   id="svg2"
   version="1.1"
   inkscape:version="0.91 r13725"
   sodipodi:docname="Development Session.svg"
   inkscape:export-filename="/Users/MacNerd/My Programs/Open Source Club/logo/Logo Fall 2016.png"
   inkscape:export-xdpi="200"
   inkscape:export-ydpi="200">
  <defs
     id="defs4">
    <inkscape:perspective
       sodipodi:type="inkscape:persp3d"
       inkscape:vp_x="0 : 3.8250016 : 1"
       inkscape:vp_y="0 : 10.000003 : 0"
       inkscape:vp_z="87167783 : 3.8250016 : 1"
       inkscape:persp3d-origin="43583894 : 2.550001 : 1"
       id="perspective4269" />
  </defs>
  <sodipodi:namedview
     id="base"
     pagecolor="#ffffff"
     bordercolor="#666666"
     borderopacity="0"
     inkscape:pageopacity="0.0"
     inkscape:pageshadow="2"
     inkscape:zoom="0.46164267"
     inkscape:cx="40.986827"
     inkscape:cy="151.95202"
     inkscape:document-units="px"
     inkscape:current-layer="layer1"
     showgrid="true"
     inkscape:showpageshadow="false"
     inkscape:window-width="1440"
     inkscape:window-height="852"
     inkscape:window-x="0"
     inkscape:window-y="0"
     inkscape:window-maximized="1"
     units="in"
     showguides="false"
     fit-margin-top="0"
     fit-margin-left="0"
     fit-margin-right="0"
     fit-margin-bottom="0">
    <inkscape:grid
       type="xygrid"
       id="grid4257"
       originx="33400200"
       originy="-5.9664949e+08" />
  </sodipodi:namedview>
  <metadata
     id="metadata7">
    <rdf:RDF>
      <cc:Work
         rdf:about="">
        <dc:format>image/svg+xml</dc:format>
        <dc:type
           rdf:resource="http://purl.org/dc/dcmitype/StillImage" />
        <dc:title />
        <cc:license
           rdf:resource="https://creativecommons.org/licenses/by-sa/4.0/" />
      </cc:Work>
    </rdf:RDF>
  </metadata>
  <g
     inkscape:label="Layer 1"
     inkscape:groupmode="layer"
     id="layer1"
     transform="translate(462.06508,16465.184)">
    <text
       xml:space="preserve"
       style="font-style:normal;font-variant:normal;font-weight:normal;font-stretch:normal;font-size:12.5px;line-height:125%;font-family:sans-serif;-inkscape-font-specification:sans-serif;letter-spacing:0px;word-spacing:0px;fill:#000000;fill-opacity:1;stroke:none;stroke-width:1px;stroke-linecap:butt;stroke-linejoin:miter;stroke-opacity:1"
       x="-22.478155"
       y="-16635.521"
       id="text4680"
       sodipodi:linespacing="125%"
       inkscape:export-filename="/Users/MacNerd/My Programs/Open Source Club/logo/images/Development Session.png"
       inkscape:export-xdpi="84.015251"
       inkscape:export-ydpi="84.015251"><tspan
         sodipodi:role="line"
         id="tspan4682"
         x="-22.478155"
         y="-16635.521" /></text>
    <flowRoot
       xml:space="preserve"
       id="flowRoot4236"
       style="font-style:normal;font-weight:normal;font-size:12.5px;line-height:125%;font-family:sans-serif;letter-spacing:0px;word-spacing:0px;fill:#000000;fill-opacity:1;stroke:none;stroke-width:1px;stroke-linecap:butt;stroke-linejoin:miter;stroke-opacity:1"
       transform="translate(1,-491.37714)"
       inkscape:export-filename="/Users/MacNerd/My Programs/Open Source Club/logo/images/Development Session.png"
       inkscape:export-xdpi="84.015251"
       inkscape:export-ydpi="84.015251"><flowRegion
         id="flowRegion4238"><rect
           id="rect4240"
           width="111.59029"
           height="81.759224"
           x="-884.98834"
           y="-16597.785" /></flowRegion><flowPara
         id="flowPara4242" /></flowRoot>    <text
       xml:space="preserve"
       style="font-style:normal;font-weight:normal;font-size:12.5px;line-height:125%;font-family:sans-serif;letter-spacing:0px;word-spacing:0px;fill:#3e82ff;fill-opacity:1;stroke:none;stroke-width:1px;stroke-linecap:butt;stroke-linejoin:miter;stroke-opacity:1"
       x="-680.46948"
       y="-16356.376"
       id="text4295"
       sodipodi:linespacing="125%"
       inkscape:export-filename="/Users/MacNerd/My Programs/Open Source Club/logo/images/Development Session.png"
       inkscape:export-xdpi="84.015251"
       inkscape:export-ydpi="84.015251"><tspan
         sodipodi:role="line"
         id="tspan4297"
         x="-680.46948"
         y="-16356.376"
         style="font-style:normal;font-variant:normal;font-weight:normal;font-stretch:normal;font-size:137.5px;font-family:sans-serif;-inkscape-font-specification:sans-serif;fill:#3e82ff;fill-opacity:1">&lt;</tspan></text>
    <text
       xml:space="preserve"
       style="font-style:normal;font-weight:normal;font-size:12.5px;line-height:125%;font-family:sans-serif;letter-spacing:0px;word-spacing:0px;fill:#3e82ff;fill-opacity:1;stroke:none;stroke-width:1px;stroke-linecap:butt;stroke-linejoin:miter;stroke-opacity:1"
       x="-380.0596"
       y="-16334.927"
       id="text4299"
       sodipodi:linespacing="125%"
       inkscape:export-filename="/Users/MacNerd/My Programs/Open Source Club/logo/images/Development Session.png"
       inkscape:export-xdpi="84.015251"
       inkscape:export-ydpi="84.015251"><tspan
         sodipodi:role="line"
         id="tspan4301"
         x="-380.0596"
         y="-16334.927"
         style="font-style:normal;font-variant:normal;font-weight:normal;font-stretch:normal;font-size:137.5px;font-family:sans-serif;-inkscape-font-specification:sans-serif;fill:#3e82ff;fill-opacity:1">evelopment</tspan></text>
    <text
       xml:space="preserve"
       style="font-style:normal;font-weight:normal;font-size:12.5px;line-height:125%;font-family:sans-serif;letter-spacing:0px;word-spacing:0px;fill:#ff900c;fill-opacity:1;stroke:none;stroke-width:1px;stroke-linecap:butt;stroke-linejoin:miter;stroke-opacity:1"
       x="-264.26776"
       y="-16161.786"
       id="text4303"
       sodipodi:linespacing="125%"
       inkscape:export-filename="/Users/MacNerd/My Programs/Open Source Club/logo/images/Development Session.png"
       inkscape:export-xdpi="84.015251"
       inkscape:export-ydpi="84.015251"><tspan
         sodipodi:role="line"
         id="tspan4305"
         x="-264.26776"
         y="-16161.786"
         style="font-style:normal;font-variant:normal;font-weight:normal;font-stretch:normal;font-size:137.5px;font-family:sans-serif;-inkscape-font-specification:sans-serif;letter-spacing:0px;fill:#ff900c;fill-opacity:1">ession<tspan
   style="font-style:normal;font-variant:normal;font-weight:normal;font-stretch:normal;font-family:sans-serif;-inkscape-font-specification:sans-serif;letter-spacing:0px;fill:#3e82ff;fill-opacity:1"
   id="tspan4307">/&gt;</tspan></tspan></text>
    <text
       xml:space="preserve"
       style="font-style:normal;font-weight:normal;font-size:48.32306671px;line-height:125%;font-family:sans-serif;letter-spacing:0px;word-spacing:0px;fill:#000000;fill-opacity:1;stroke:none;stroke-width:1px;stroke-linecap:butt;stroke-linejoin:miter;stroke-opacity:1"
       x="-489.34418"
       y="-16598.318"
       id="text4150"
       sodipodi:linespacing="125%"
       inkscape:export-filename="/Users/MacNerd/My Programs/Open Source Club/logo/images/Development Session.png"
       inkscape:export-xdpi="84.015251"
       inkscape:export-ydpi="84.015251"><tspan
         sodipodi:role="line"
         id="tspan4152"
         x="-489.34418"
         y="-16598.318" /></text>
    <path
       style="opacity:1;fill:#ff900c;fill-opacity:1"
       d="m -475.17221,-16501.128 a 99.210281,99.206046 0 0 0 -99.20858,99.206 99.210281,99.206046 0 0 0 99.20858,99.207 99.210281,99.206046 0 0 0 99.21094,-99.207 99.210281,99.206046 0 0 0 -99.21094,-99.206 z m -49.51463,34.098 36.72129,0 c 25.60084,0 44.38737,5.339 56.36196,16.016 11.97459,10.618 17.96306,27.253 17.96306,49.904 0,22.769 -6.01677,39.491 -18.05035,50.168 -12.03358,10.677 -30.7918,16.017 -56.27467,16.017 l -36.72129,0 0,-132.105 z m 17.8734,14.688 0,102.729 21.58966,0 c 18.22733,0 31.55865,-4.13 39.99395,-12.388 8.49428,-8.258 12.74142,-21.295 12.74142,-39.109 0,-17.696 -4.24714,-30.646 -12.74142,-38.845 -8.4353,-8.258 -21.76662,-12.387 -39.99395,-12.387 l -21.58966,0 z"
       id="path4431"
       inkscape:connector-curvature="0"
       inkscape:export-filename="/Users/MacNerd/My Programs/Open Source Club/logo/images/Development Session.png"
       inkscape:export-xdpi="84.015251"
       inkscape:export-ydpi="84.015251" />
    <path
       style="opacity:1;fill:#3e82ff;fill-opacity:1"
       d="m -359.35673,-16326.721 a 99.210281,99.206046 0 0 0 -99.20858,99.206 99.210281,99.206046 0 0 0 99.20858,99.204 99.210281,99.206046 0 0 0 99.21094,-99.204 99.210281,99.206046 0 0 0 -99.21094,-99.206 z m -0.13213,30.442 c 6.19375,0 12.50548,0.562 18.93519,1.682 6.4297,1.121 13.00805,2.801 19.7327,5.043 l 0,17.432 c -6.78364,-3.244 -13.18502,-5.663 -19.20181,-7.256 -6.01679,-1.592 -11.82594,-2.39 -17.42981,-2.39 -9.73304,0 -17.25521,1.888 -22.56414,5.663 -5.24994,3.775 -7.87373,9.143 -7.87373,16.104 0,5.84 1.73897,10.264 5.21927,13.272 3.53928,2.95 10.20494,5.34 19.99697,7.168 l 10.79483,2.211 c 13.33131,2.537 23.15401,7.02 29.46574,13.45 6.37072,6.37 9.55607,14.924 9.55607,25.659 0,12.801 -4.30613,22.506 -12.91839,29.112 -8.55328,6.607 -21.11775,9.91 -37.69341,9.91 -6.25274,0 -12.9184,-0.708 -19.99697,-2.123 -7.01959,-1.416 -14.3058,-3.511 -21.85628,-6.284 l 0,-18.404 c 7.25554,4.07 14.36479,7.138 21.32538,9.202 6.9606,2.065 13.80322,3.098 20.52787,3.098 10.20494,0 18.07868,-2.005 23.62356,-6.017 5.54488,-4.011 8.31733,-9.733 8.31733,-17.165 0,-6.489 -2.0056,-11.562 -6.01679,-15.219 -3.9522,-3.657 -10.46921,-6.402 -19.55338,-8.23 l -10.88449,-2.124 c -13.33132,-2.654 -22.97469,-6.812 -28.93249,-12.475 -5.9578,-5.662 -8.93788,-13.538 -8.93788,-23.625 0,-11.68 4.10085,-20.882 12.3002,-27.607 8.25833,-6.725 19.61237,-10.087 34.06446,-10.087 z"
       id="path4455"
       inkscape:connector-curvature="0"
       inkscape:export-filename="/Users/MacNerd/My Programs/Open Source Club/logo/images/Development Session.png"
       inkscape:export-xdpi="84.015251"
       inkscape:export-ydpi="84.015251" />
  </g>
</svg>
