<?xml version="1.0" encoding="UTF-8" standalone="no"?>
<svg
   xmlns:dc="http://purl.org/dc/elements/1.1/"
   xmlns:cc="http://creativecommons.org/ns#"
   xmlns:rdf="http://www.w3.org/1999/02/22-rdf-syntax-ns#"
   xmlns:svg="http://www.w3.org/2000/svg"
   xmlns="http://www.w3.org/2000/svg"
   xmlns:sodipodi="http://sodipodi.sourceforge.net/DTD/sodipodi-0.dtd"
   xmlns:inkscape="http://www.inkscape.org/namespaces/inkscape"
   version="1.1"
   id="svg692"
   sodipodi:docname="QR_Code_Open_Source_Club.svg"
   width="33"
   height="33"
   inkscape:version="0.92.4 (33fec40, 2019-01-16)">
  <metadata
     id="metadata698">
    <rdf:RDF>
      <cc:Work
         rdf:about="">
        <dc:format>image/svg+xml</dc:format>
        <dc:type
           rdf:resource="http://purl.org/dc/dcmitype/StillImage" />
        <dc:title></dc:title>
      </cc:Work>
    </rdf:RDF>
  </metadata>
  <defs
     id="defs696" />
  <sodipodi:namedview
     pagecolor="#ffffff"
     bordercolor="#666666"
     borderopacity="1"
     objecttolerance="10"
     gridtolerance="10"
     guidetolerance="10"
     inkscape:pageopacity="0"
     inkscape:pageshadow="2"
     inkscape:window-width="1920"
     inkscape:window-height="1013"
     id="namedview694"
     showgrid="false"
     fit-margin-top="0"
     fit-margin-left="0"
     fit-margin-right="0"
     fit-margin-bottom="0"
     inkscape:zoom="2.36"
     inkscape:cx="-2.1186441"
     inkscape:cy="-17"
     inkscape:window-x="0"
     inkscape:window-y="38"
     inkscape:window-maximized="1"
     inkscape:current-layer="svg692" />
  <rect
     x="0"
     y="0"
     width="33"
     height="33"
     style="fill:#ffffff"
     id="rect2" />
  <rect
     x="4"
     y="4"
     width="1"
     height="1"
     style="fill:#000000"
     id="rect4" />
  <rect
     x="5"
     y="4"
     width="1"
     height="1"
     style="fill:#000000"
     id="rect6" />
  <rect
     x="6"
     y="4"
     width="1"
     height="1"
     style="fill:#000000"
     id="rect8" />
  <rect
     x="7"
     y="4"
     width="1"
     height="1"
     style="fill:#000000"
     id="rect10" />
  <rect
     x="8"
     y="4"
     width="1"
     height="1"
     style="fill:#000000"
     id="rect12" />
  <rect
     x="9"
     y="4"
     width="1"
     height="1"
     style="fill:#000000"
     id="rect14" />
  <rect
     x="10"
     y="4"
     width="1"
     height="1"
     style="fill:#000000"
     id="rect16" />
  <rect
     x="13"
     y="4"
     width="1"
     height="1"
     style="fill:#000000"
     id="rect18" />
  <rect
     x="20"
     y="4"
     width="1"
     height="1"
     style="fill:#000000"
     id="rect20" />
  <rect
     x="22"
     y="4"
     width="1"
     height="1"
     style="fill:#000000"
     id="rect22" />
  <rect
     x="23"
     y="4"
     width="1"
     height="1"
     style="fill:#000000"
     id="rect24" />
  <rect
     x="24"
     y="4"
     width="1"
     height="1"
     style="fill:#000000"
     id="rect26" />
  <rect
     x="25"
     y="4"
     width="1"
     height="1"
     style="fill:#000000"
     id="rect28" />
  <rect
     x="26"
     y="4"
     width="1"
     height="1"
     style="fill:#000000"
     id="rect30" />
  <rect
     x="27"
     y="4"
     width="1"
     height="1"
     style="fill:#000000"
     id="rect32" />
  <rect
     x="28"
     y="4"
     width="1"
     height="1"
     style="fill:#000000"
     id="rect34" />
  <rect
     x="4"
     y="5"
     width="1"
     height="1"
     style="fill:#000000"
     id="rect36" />
  <rect
     x="10"
     y="5"
     width="1"
     height="1"
     style="fill:#000000"
     id="rect38" />
  <rect
     x="12"
     y="5"
     width="1"
     height="1"
     style="fill:#000000"
     id="rect40" />
  <rect
     x="13"
     y="5"
     width="1"
     height="1"
     style="fill:#000000"
     id="rect42" />
  <rect
     x="15"
     y="5"
     width="1"
     height="1"
     style="fill:#000000"
     id="rect44" />
  <rect
     x="16"
     y="5"
     width="1"
     height="1"
     style="fill:#000000"
     id="rect46" />
  <rect
     x="17"
     y="5"
     width="1"
     height="1"
     style="fill:#000000"
     id="rect48" />
  <rect
     x="19"
     y="5"
     width="1"
     height="1"
     style="fill:#000000"
     id="rect50" />
  <rect
     x="22"
     y="5"
     width="1"
     height="1"
     style="fill:#000000"
     id="rect52" />
  <rect
     x="28"
     y="5"
     width="1"
     height="1"
     style="fill:#000000"
     id="rect54" />
  <rect
     x="4"
     y="6"
     width="1"
     height="1"
     style="fill:#000000"
     id="rect56" />
  <rect
     x="6"
     y="6"
     width="1"
     height="1"
     style="fill:#000000"
     id="rect58" />
  <rect
     x="7"
     y="6"
     width="1"
     height="1"
     style="fill:#000000"
     id="rect60" />
  <rect
     x="8"
     y="6"
     width="1"
     height="1"
     style="fill:#000000"
     id="rect62" />
  <rect
     x="10"
     y="6"
     width="1"
     height="1"
     style="fill:#000000"
     id="rect64" />
  <rect
     x="13"
     y="6"
     width="1"
     height="1"
     style="fill:#000000"
     id="rect66" />
  <rect
     x="14"
     y="6"
     width="1"
     height="1"
     style="fill:#000000"
     id="rect68" />
  <rect
     x="15"
     y="6"
     width="1"
     height="1"
     style="fill:#000000"
     id="rect70" />
  <rect
     x="22"
     y="6"
     width="1"
     height="1"
     style="fill:#000000"
     id="rect72" />
  <rect
     x="24"
     y="6"
     width="1"
     height="1"
     style="fill:#000000"
     id="rect74" />
  <rect
     x="25"
     y="6"
     width="1"
     height="1"
     style="fill:#000000"
     id="rect76" />
  <rect
     x="26"
     y="6"
     width="1"
     height="1"
     style="fill:#000000"
     id="rect78" />
  <rect
     x="28"
     y="6"
     width="1"
     height="1"
     style="fill:#000000"
     id="rect80" />
  <rect
     x="4"
     y="7"
     width="1"
     height="1"
     style="fill:#000000"
     id="rect82" />
  <rect
     x="6"
     y="7"
     width="1"
     height="1"
     style="fill:#000000"
     id="rect84" />
  <rect
     x="7"
     y="7"
     width="1"
     height="1"
     style="fill:#000000"
     id="rect86" />
  <rect
     x="8"
     y="7"
     width="1"
     height="1"
     style="fill:#000000"
     id="rect88" />
  <rect
     x="10"
     y="7"
     width="1"
     height="1"
     style="fill:#000000"
     id="rect90" />
  <rect
     x="12"
     y="7"
     width="1"
     height="1"
     style="fill:#000000"
     id="rect92" />
  <rect
     x="13"
     y="7"
     width="1"
     height="1"
     style="fill:#000000"
     id="rect94" />
  <rect
     x="15"
     y="7"
     width="1"
     height="1"
     style="fill:#000000"
     id="rect96" />
  <rect
     x="17"
     y="7"
     width="1"
     height="1"
     style="fill:#000000"
     id="rect98" />
  <rect
     x="19"
     y="7"
     width="1"
     height="1"
     style="fill:#000000"
     id="rect100" />
  <rect
     x="22"
     y="7"
     width="1"
     height="1"
     style="fill:#000000"
     id="rect102" />
  <rect
     x="24"
     y="7"
     width="1"
     height="1"
     style="fill:#000000"
     id="rect104" />
  <rect
     x="25"
     y="7"
     width="1"
     height="1"
     style="fill:#000000"
     id="rect106" />
  <rect
     x="26"
     y="7"
     width="1"
     height="1"
     style="fill:#000000"
     id="rect108" />
  <rect
     x="28"
     y="7"
     width="1"
     height="1"
     style="fill:#000000"
     id="rect110" />
  <rect
     x="4"
     y="8"
     width="1"
     height="1"
     style="fill:#000000"
     id="rect112" />
  <rect
     x="6"
     y="8"
     width="1"
     height="1"
     style="fill:#000000"
     id="rect114" />
  <rect
     x="7"
     y="8"
     width="1"
     height="1"
     style="fill:#000000"
     id="rect116" />
  <rect
     x="8"
     y="8"
     width="1"
     height="1"
     style="fill:#000000"
     id="rect118" />
  <rect
     x="10"
     y="8"
     width="1"
     height="1"
     style="fill:#000000"
     id="rect120" />
  <rect
     x="14"
     y="8"
     width="1"
     height="1"
     style="fill:#000000"
     id="rect122" />
  <rect
     x="16"
     y="8"
     width="1"
     height="1"
     style="fill:#000000"
     id="rect124" />
  <rect
     x="18"
     y="8"
     width="1"
     height="1"
     style="fill:#000000"
     id="rect126" />
  <rect
     x="20"
     y="8"
     width="1"
     height="1"
     style="fill:#000000"
     id="rect128" />
  <rect
     x="22"
     y="8"
     width="1"
     height="1"
     style="fill:#000000"
     id="rect130" />
  <rect
     x="24"
     y="8"
     width="1"
     height="1"
     style="fill:#000000"
     id="rect132" />
  <rect
     x="25"
     y="8"
     width="1"
     height="1"
     style="fill:#000000"
     id="rect134" />
  <rect
     x="26"
     y="8"
     width="1"
     height="1"
     style="fill:#000000"
     id="rect136" />
  <rect
     x="28"
     y="8"
     width="1"
     height="1"
     style="fill:#000000"
     id="rect138" />
  <rect
     x="4"
     y="9"
     width="1"
     height="1"
     style="fill:#000000"
     id="rect140" />
  <rect
     x="10"
     y="9"
     width="1"
     height="1"
     style="fill:#000000"
     id="rect142" />
  <rect
     x="12"
     y="9"
     width="1"
     height="1"
     style="fill:#000000"
     id="rect144" />
  <rect
     x="14"
     y="9"
     width="1"
     height="1"
     style="fill:#000000"
     id="rect146" />
  <rect
     x="17"
     y="9"
     width="1"
     height="1"
     style="fill:#000000"
     id="rect148" />
  <rect
     x="19"
     y="9"
     width="1"
     height="1"
     style="fill:#000000"
     id="rect150" />
  <rect
     x="20"
     y="9"
     width="1"
     height="1"
     style="fill:#000000"
     id="rect152" />
  <rect
     x="22"
     y="9"
     width="1"
     height="1"
     style="fill:#000000"
     id="rect154" />
  <rect
     x="28"
     y="9"
     width="1"
     height="1"
     style="fill:#000000"
     id="rect156" />
  <rect
     x="4"
     y="10"
     width="1"
     height="1"
     style="fill:#000000"
     id="rect158" />
  <rect
     x="5"
     y="10"
     width="1"
     height="1"
     style="fill:#000000"
     id="rect160" />
  <rect
     x="6"
     y="10"
     width="1"
     height="1"
     style="fill:#000000"
     id="rect162" />
  <rect
     x="7"
     y="10"
     width="1"
     height="1"
     style="fill:#000000"
     id="rect164" />
  <rect
     x="8"
     y="10"
     width="1"
     height="1"
     style="fill:#000000"
     id="rect166" />
  <rect
     x="9"
     y="10"
     width="1"
     height="1"
     style="fill:#000000"
     id="rect168" />
  <rect
     x="10"
     y="10"
     width="1"
     height="1"
     style="fill:#000000"
     id="rect170" />
  <rect
     x="12"
     y="10"
     width="1"
     height="1"
     style="fill:#000000"
     id="rect172" />
  <rect
     x="14"
     y="10"
     width="1"
     height="1"
     style="fill:#000000"
     id="rect174" />
  <rect
     x="16"
     y="10"
     width="1"
     height="1"
     style="fill:#000000"
     id="rect176" />
  <rect
     x="18"
     y="10"
     width="1"
     height="1"
     style="fill:#000000"
     id="rect178" />
  <rect
     x="20"
     y="10"
     width="1"
     height="1"
     style="fill:#000000"
     id="rect180" />
  <rect
     x="22"
     y="10"
     width="1"
     height="1"
     style="fill:#000000"
     id="rect182" />
  <rect
     x="23"
     y="10"
     width="1"
     height="1"
     style="fill:#000000"
     id="rect184" />
  <rect
     x="24"
     y="10"
     width="1"
     height="1"
     style="fill:#000000"
     id="rect186" />
  <rect
     x="25"
     y="10"
     width="1"
     height="1"
     style="fill:#000000"
     id="rect188" />
  <rect
     x="26"
     y="10"
     width="1"
     height="1"
     style="fill:#000000"
     id="rect190" />
  <rect
     x="27"
     y="10"
     width="1"
     height="1"
     style="fill:#000000"
     id="rect192" />
  <rect
     x="28"
     y="10"
     width="1"
     height="1"
     style="fill:#000000"
     id="rect194" />
  <rect
     x="16"
     y="11"
     width="1"
     height="1"
     style="fill:#000000"
     id="rect196" />
  <rect
     x="18"
     y="11"
     width="1"
     height="1"
     style="fill:#000000"
     id="rect198" />
  <rect
     x="20"
     y="11"
     width="1"
     height="1"
     style="fill:#000000"
     id="rect200" />
  <rect
     x="4"
     y="12"
     width="1"
     height="1"
     style="fill:#000000"
     id="rect202" />
  <rect
     x="5"
     y="12"
     width="1"
     height="1"
     style="fill:#000000"
     id="rect204" />
  <rect
     x="6"
     y="12"
     width="1"
     height="1"
     style="fill:#000000"
     id="rect206" />
  <rect
     x="7"
     y="12"
     width="1"
     height="1"
     style="fill:#000000"
     id="rect208" />
  <rect
     x="8"
     y="12"
     width="1"
     height="1"
     style="fill:#000000"
     id="rect210" />
  <rect
     x="10"
     y="12"
     width="1"
     height="1"
     style="fill:#000000"
     id="rect212" />
  <rect
     x="11"
     y="12"
     width="1"
     height="1"
     style="fill:#000000"
     id="rect214" />
  <rect
     x="12"
     y="12"
     width="1"
     height="1"
     style="fill:#000000"
     id="rect216" />
  <rect
     x="13"
     y="12"
     width="1"
     height="1"
     style="fill:#000000"
     id="rect218" />
  <rect
     x="14"
     y="12"
     width="1"
     height="1"
     style="fill:#000000"
     id="rect220" />
  <rect
     x="16"
     y="12"
     width="1"
     height="1"
     style="fill:#000000"
     id="rect222" />
  <rect
     x="17"
     y="12"
     width="1"
     height="1"
     style="fill:#000000"
     id="rect224" />
  <rect
     x="21"
     y="12"
     width="1"
     height="1"
     style="fill:#000000"
     id="rect226" />
  <rect
     x="23"
     y="12"
     width="1"
     height="1"
     style="fill:#000000"
     id="rect228" />
  <rect
     x="25"
     y="12"
     width="1"
     height="1"
     style="fill:#000000"
     id="rect230" />
  <rect
     x="27"
     y="12"
     width="1"
     height="1"
     style="fill:#000000"
     id="rect232" />
  <rect
     x="5"
     y="13"
     width="1"
     height="1"
     style="fill:#000000"
     id="rect234" />
  <rect
     x="6"
     y="13"
     width="1"
     height="1"
     style="fill:#000000"
     id="rect236" />
  <rect
     x="7"
     y="13"
     width="1"
     height="1"
     style="fill:#000000"
     id="rect238" />
  <rect
     x="9"
     y="13"
     width="1"
     height="1"
     style="fill:#000000"
     id="rect240" />
  <rect
     x="13"
     y="13"
     width="1"
     height="1"
     style="fill:#000000"
     id="rect242" />
  <rect
     x="18"
     y="13"
     width="1"
     height="1"
     style="fill:#000000"
     id="rect244" />
  <rect
     x="23"
     y="13"
     width="1"
     height="1"
     style="fill:#000000"
     id="rect246" />
  <rect
     x="27"
     y="13"
     width="1"
     height="1"
     style="fill:#000000"
     id="rect248" />
  <rect
     x="5"
     y="14"
     width="1"
     height="1"
     style="fill:#000000"
     id="rect250" />
  <rect
     x="6"
     y="14"
     width="1"
     height="1"
     style="fill:#000000"
     id="rect252" />
  <rect
     x="7"
     y="14"
     width="1"
     height="1"
     style="fill:#000000"
     id="rect254" />
  <rect
     x="9"
     y="14"
     width="1"
     height="1"
     style="fill:#000000"
     id="rect256" />
  <rect
     x="10"
     y="14"
     width="1"
     height="1"
     style="fill:#000000"
     id="rect258" />
  <rect
     x="11"
     y="14"
     width="1"
     height="1"
     style="fill:#000000"
     id="rect260" />
  <rect
     x="12"
     y="14"
     width="1"
     height="1"
     style="fill:#000000"
     id="rect262" />
  <rect
     x="13"
     y="14"
     width="1"
     height="1"
     style="fill:#000000"
     id="rect264" />
  <rect
     x="15"
     y="14"
     width="1"
     height="1"
     style="fill:#000000"
     id="rect266" />
  <rect
     x="16"
     y="14"
     width="1"
     height="1"
     style="fill:#000000"
     id="rect268" />
  <rect
     x="18"
     y="14"
     width="1"
     height="1"
     style="fill:#000000"
     id="rect270" />
  <rect
     x="19"
     y="14"
     width="1"
     height="1"
     style="fill:#000000"
     id="rect272" />
  <rect
     x="20"
     y="14"
     width="1"
     height="1"
     style="fill:#000000"
     id="rect274" />
  <rect
     x="21"
     y="14"
     width="1"
     height="1"
     style="fill:#000000"
     id="rect276" />
  <rect
     x="22"
     y="14"
     width="1"
     height="1"
     style="fill:#000000"
     id="rect278" />
  <rect
     x="24"
     y="14"
     width="1"
     height="1"
     style="fill:#000000"
     id="rect280" />
  <rect
     x="25"
     y="14"
     width="1"
     height="1"
     style="fill:#000000"
     id="rect282" />
  <rect
     x="27"
     y="14"
     width="1"
     height="1"
     style="fill:#000000"
     id="rect284" />
  <rect
     x="28"
     y="14"
     width="1"
     height="1"
     style="fill:#000000"
     id="rect286" />
  <rect
     x="8"
     y="15"
     width="1"
     height="1"
     style="fill:#000000"
     id="rect288" />
  <rect
     x="13"
     y="15"
     width="1"
     height="1"
     style="fill:#000000"
     id="rect290" />
  <rect
     x="14"
     y="15"
     width="1"
     height="1"
     style="fill:#000000"
     id="rect292" />
  <rect
     x="15"
     y="15"
     width="1"
     height="1"
     style="fill:#000000"
     id="rect294" />
  <rect
     x="18"
     y="15"
     width="1"
     height="1"
     style="fill:#000000"
     id="rect296" />
  <rect
     x="19"
     y="15"
     width="1"
     height="1"
     style="fill:#000000"
     id="rect298" />
  <rect
     x="20"
     y="15"
     width="1"
     height="1"
     style="fill:#000000"
     id="rect300" />
  <rect
     x="21"
     y="15"
     width="1"
     height="1"
     style="fill:#000000"
     id="rect302" />
  <rect
     x="22"
     y="15"
     width="1"
     height="1"
     style="fill:#000000"
     id="rect304" />
  <rect
     x="23"
     y="15"
     width="1"
     height="1"
     style="fill:#000000"
     id="rect306" />
  <rect
     x="24"
     y="15"
     width="1"
     height="1"
     style="fill:#000000"
     id="rect308" />
  <rect
     x="28"
     y="15"
     width="1"
     height="1"
     style="fill:#000000"
     id="rect310" />
  <rect
     x="4"
     y="16"
     width="1"
     height="1"
     style="fill:#000000"
     id="rect312" />
  <rect
     x="5"
     y="16"
     width="1"
     height="1"
     style="fill:#000000"
     id="rect314" />
  <rect
     x="8"
     y="16"
     width="1"
     height="1"
     style="fill:#000000"
     id="rect316" />
  <rect
     x="9"
     y="16"
     width="1"
     height="1"
     style="fill:#000000"
     id="rect318" />
  <rect
     x="10"
     y="16"
     width="1"
     height="1"
     style="fill:#000000"
     id="rect320" />
  <rect
     x="11"
     y="16"
     width="1"
     height="1"
     style="fill:#000000"
     id="rect322" />
  <rect
     x="12"
     y="16"
     width="1"
     height="1"
     style="fill:#000000"
     id="rect324" />
  <rect
     x="13"
     y="16"
     width="1"
     height="1"
     style="fill:#000000"
     id="rect326" />
  <rect
     x="15"
     y="16"
     width="1"
     height="1"
     style="fill:#000000"
     id="rect328" />
  <rect
     x="17"
     y="16"
     width="1"
     height="1"
     style="fill:#000000"
     id="rect330" />
  <rect
     x="18"
     y="16"
     width="1"
     height="1"
     style="fill:#000000"
     id="rect332" />
  <rect
     x="19"
     y="16"
     width="1"
     height="1"
     style="fill:#000000"
     id="rect334" />
  <rect
     x="21"
     y="16"
     width="1"
     height="1"
     style="fill:#000000"
     id="rect336" />
  <rect
     x="22"
     y="16"
     width="1"
     height="1"
     style="fill:#000000"
     id="rect338" />
  <rect
     x="24"
     y="16"
     width="1"
     height="1"
     style="fill:#000000"
     id="rect340" />
  <rect
     x="26"
     y="16"
     width="1"
     height="1"
     style="fill:#000000"
     id="rect342" />
  <rect
     x="27"
     y="16"
     width="1"
     height="1"
     style="fill:#000000"
     id="rect344" />
  <rect
     x="28"
     y="16"
     width="1"
     height="1"
     style="fill:#000000"
     id="rect346" />
  <rect
     x="4"
     y="17"
     width="1"
     height="1"
     style="fill:#000000"
     id="rect348" />
  <rect
     x="5"
     y="17"
     width="1"
     height="1"
     style="fill:#000000"
     id="rect350" />
  <rect
     x="6"
     y="17"
     width="1"
     height="1"
     style="fill:#000000"
     id="rect352" />
  <rect
     x="7"
     y="17"
     width="1"
     height="1"
     style="fill:#000000"
     id="rect354" />
  <rect
     x="8"
     y="17"
     width="1"
     height="1"
     style="fill:#000000"
     id="rect356" />
  <rect
     x="11"
     y="17"
     width="1"
     height="1"
     style="fill:#000000"
     id="rect358" />
  <rect
     x="12"
     y="17"
     width="1"
     height="1"
     style="fill:#000000"
     id="rect360" />
  <rect
     x="13"
     y="17"
     width="1"
     height="1"
     style="fill:#000000"
     id="rect362" />
  <rect
     x="14"
     y="17"
     width="1"
     height="1"
     style="fill:#000000"
     id="rect364" />
  <rect
     x="16"
     y="17"
     width="1"
     height="1"
     style="fill:#000000"
     id="rect366" />
  <rect
     x="17"
     y="17"
     width="1"
     height="1"
     style="fill:#000000"
     id="rect368" />
  <rect
     x="20"
     y="17"
     width="1"
     height="1"
     style="fill:#000000"
     id="rect370" />
  <rect
     x="25"
     y="17"
     width="1"
     height="1"
     style="fill:#000000"
     id="rect372" />
  <rect
     x="27"
     y="17"
     width="1"
     height="1"
     style="fill:#000000"
     id="rect374" />
  <rect
     x="4"
     y="18"
     width="1"
     height="1"
     style="fill:#000000"
     id="rect376" />
  <rect
     x="10"
     y="18"
     width="1"
     height="1"
     style="fill:#000000"
     id="rect378" />
  <rect
     x="13"
     y="18"
     width="1"
     height="1"
     style="fill:#000000"
     id="rect380" />
  <rect
     x="14"
     y="18"
     width="1"
     height="1"
     style="fill:#000000"
     id="rect382" />
  <rect
     x="17"
     y="18"
     width="1"
     height="1"
     style="fill:#000000"
     id="rect384" />
  <rect
     x="19"
     y="18"
     width="1"
     height="1"
     style="fill:#000000"
     id="rect386" />
  <rect
     x="20"
     y="18"
     width="1"
     height="1"
     style="fill:#000000"
     id="rect388" />
  <rect
     x="22"
     y="18"
     width="1"
     height="1"
     style="fill:#000000"
     id="rect390" />
  <rect
     x="25"
     y="18"
     width="1"
     height="1"
     style="fill:#000000"
     id="rect392" />
  <rect
     x="27"
     y="18"
     width="1"
     height="1"
     style="fill:#000000"
     id="rect394" />
  <rect
     x="28"
     y="18"
     width="1"
     height="1"
     style="fill:#000000"
     id="rect396" />
  <rect
     x="4"
     y="19"
     width="1"
     height="1"
     style="fill:#000000"
     id="rect398" />
  <rect
     x="6"
     y="19"
     width="1"
     height="1"
     style="fill:#000000"
     id="rect400" />
  <rect
     x="7"
     y="19"
     width="1"
     height="1"
     style="fill:#000000"
     id="rect402" />
  <rect
     x="8"
     y="19"
     width="1"
     height="1"
     style="fill:#000000"
     id="rect404" />
  <rect
     x="14"
     y="19"
     width="1"
     height="1"
     style="fill:#000000"
     id="rect406" />
  <rect
     x="16"
     y="19"
     width="1"
     height="1"
     style="fill:#000000"
     id="rect408" />
  <rect
     x="19"
     y="19"
     width="1"
     height="1"
     style="fill:#000000"
     id="rect410" />
  <rect
     x="20"
     y="19"
     width="1"
     height="1"
     style="fill:#000000"
     id="rect412" />
  <rect
     x="21"
     y="19"
     width="1"
     height="1"
     style="fill:#000000"
     id="rect414" />
  <rect
     x="22"
     y="19"
     width="1"
     height="1"
     style="fill:#000000"
     id="rect416" />
  <rect
     x="23"
     y="19"
     width="1"
     height="1"
     style="fill:#000000"
     id="rect418" />
  <rect
     x="24"
     y="19"
     width="1"
     height="1"
     style="fill:#000000"
     id="rect420" />
  <rect
     x="25"
     y="19"
     width="1"
     height="1"
     style="fill:#000000"
     id="rect422" />
  <rect
     x="28"
     y="19"
     width="1"
     height="1"
     style="fill:#000000"
     id="rect424" />
  <rect
     x="4"
     y="20"
     width="1"
     height="1"
     style="fill:#000000"
     id="rect426" />
  <rect
     x="7"
     y="20"
     width="1"
     height="1"
     style="fill:#000000"
     id="rect428" />
  <rect
     x="9"
     y="20"
     width="1"
     height="1"
     style="fill:#000000"
     id="rect430" />
  <rect
     x="10"
     y="20"
     width="1"
     height="1"
     style="fill:#000000"
     id="rect432" />
  <rect
     x="11"
     y="20"
     width="1"
     height="1"
     style="fill:#000000"
     id="rect434" />
  <rect
     x="13"
     y="20"
     width="1"
     height="1"
     style="fill:#000000"
     id="rect436" />
  <rect
     x="16"
     y="20"
     width="1"
     height="1"
     style="fill:#000000"
     id="rect438" />
  <rect
     x="18"
     y="20"
     width="1"
     height="1"
     style="fill:#000000"
     id="rect440" />
  <rect
     x="20"
     y="20"
     width="1"
     height="1"
     style="fill:#000000"
     id="rect442" />
  <rect
     x="21"
     y="20"
     width="1"
     height="1"
     style="fill:#000000"
     id="rect444" />
  <rect
     x="22"
     y="20"
     width="1"
     height="1"
     style="fill:#000000"
     id="rect446" />
  <rect
     x="23"
     y="20"
     width="1"
     height="1"
     style="fill:#000000"
     id="rect448" />
  <rect
     x="24"
     y="20"
     width="1"
     height="1"
     style="fill:#000000"
     id="rect450" />
  <rect
     x="26"
     y="20"
     width="1"
     height="1"
     style="fill:#000000"
     id="rect452" />
  <rect
     x="12"
     y="21"
     width="1"
     height="1"
     style="fill:#000000"
     id="rect454" />
  <rect
     x="14"
     y="21"
     width="1"
     height="1"
     style="fill:#000000"
     id="rect456" />
  <rect
     x="18"
     y="21"
     width="1"
     height="1"
     style="fill:#000000"
     id="rect458" />
  <rect
     x="19"
     y="21"
     width="1"
     height="1"
     style="fill:#000000"
     id="rect460" />
  <rect
     x="20"
     y="21"
     width="1"
     height="1"
     style="fill:#000000"
     id="rect462" />
  <rect
     x="24"
     y="21"
     width="1"
     height="1"
     style="fill:#000000"
     id="rect464" />
  <rect
     x="25"
     y="21"
     width="1"
     height="1"
     style="fill:#000000"
     id="rect466" />
  <rect
     x="26"
     y="21"
     width="1"
     height="1"
     style="fill:#000000"
     id="rect468" />
  <rect
     x="4"
     y="22"
     width="1"
     height="1"
     style="fill:#000000"
     id="rect470" />
  <rect
     x="5"
     y="22"
     width="1"
     height="1"
     style="fill:#000000"
     id="rect472" />
  <rect
     x="6"
     y="22"
     width="1"
     height="1"
     style="fill:#000000"
     id="rect474" />
  <rect
     x="7"
     y="22"
     width="1"
     height="1"
     style="fill:#000000"
     id="rect476" />
  <rect
     x="8"
     y="22"
     width="1"
     height="1"
     style="fill:#000000"
     id="rect478" />
  <rect
     x="9"
     y="22"
     width="1"
     height="1"
     style="fill:#000000"
     id="rect480" />
  <rect
     x="10"
     y="22"
     width="1"
     height="1"
     style="fill:#000000"
     id="rect482" />
  <rect
     x="12"
     y="22"
     width="1"
     height="1"
     style="fill:#000000"
     id="rect484" />
  <rect
     x="15"
     y="22"
     width="1"
     height="1"
     style="fill:#000000"
     id="rect486" />
  <rect
     x="16"
     y="22"
     width="1"
     height="1"
     style="fill:#000000"
     id="rect488" />
  <rect
     x="17"
     y="22"
     width="1"
     height="1"
     style="fill:#000000"
     id="rect490" />
  <rect
     x="18"
     y="22"
     width="1"
     height="1"
     style="fill:#000000"
     id="rect492" />
  <rect
     x="20"
     y="22"
     width="1"
     height="1"
     style="fill:#000000"
     id="rect494" />
  <rect
     x="22"
     y="22"
     width="1"
     height="1"
     style="fill:#000000"
     id="rect496" />
  <rect
     x="24"
     y="22"
     width="1"
     height="1"
     style="fill:#000000"
     id="rect498" />
  <rect
     x="25"
     y="22"
     width="1"
     height="1"
     style="fill:#000000"
     id="rect500" />
  <rect
     x="26"
     y="22"
     width="1"
     height="1"
     style="fill:#000000"
     id="rect502" />
  <rect
     x="27"
     y="22"
     width="1"
     height="1"
     style="fill:#000000"
     id="rect504" />
  <rect
     x="28"
     y="22"
     width="1"
     height="1"
     style="fill:#000000"
     id="rect506" />
  <rect
     x="4"
     y="23"
     width="1"
     height="1"
     style="fill:#000000"
     id="rect508" />
  <rect
     x="10"
     y="23"
     width="1"
     height="1"
     style="fill:#000000"
     id="rect510" />
  <rect
     x="14"
     y="23"
     width="1"
     height="1"
     style="fill:#000000"
     id="rect512" />
  <rect
     x="15"
     y="23"
     width="1"
     height="1"
     style="fill:#000000"
     id="rect514" />
  <rect
     x="18"
     y="23"
     width="1"
     height="1"
     style="fill:#000000"
     id="rect516" />
  <rect
     x="20"
     y="23"
     width="1"
     height="1"
     style="fill:#000000"
     id="rect518" />
  <rect
     x="24"
     y="23"
     width="1"
     height="1"
     style="fill:#000000"
     id="rect520" />
  <rect
     x="25"
     y="23"
     width="1"
     height="1"
     style="fill:#000000"
     id="rect522" />
  <rect
     x="4"
     y="24"
     width="1"
     height="1"
     style="fill:#000000"
     id="rect524" />
  <rect
     x="6"
     y="24"
     width="1"
     height="1"
     style="fill:#000000"
     id="rect526" />
  <rect
     x="7"
     y="24"
     width="1"
     height="1"
     style="fill:#000000"
     id="rect528" />
  <rect
     x="8"
     y="24"
     width="1"
     height="1"
     style="fill:#000000"
     id="rect530" />
  <rect
     x="10"
     y="24"
     width="1"
     height="1"
     style="fill:#000000"
     id="rect532" />
  <rect
     x="12"
     y="24"
     width="1"
     height="1"
     style="fill:#000000"
     id="rect534" />
  <rect
     x="15"
     y="24"
     width="1"
     height="1"
     style="fill:#000000"
     id="rect536" />
  <rect
     x="19"
     y="24"
     width="1"
     height="1"
     style="fill:#000000"
     id="rect538" />
  <rect
     x="20"
     y="24"
     width="1"
     height="1"
     style="fill:#000000"
     id="rect540" />
  <rect
     x="21"
     y="24"
     width="1"
     height="1"
     style="fill:#000000"
     id="rect542" />
  <rect
     x="22"
     y="24"
     width="1"
     height="1"
     style="fill:#000000"
     id="rect544" />
  <rect
     x="23"
     y="24"
     width="1"
     height="1"
     style="fill:#000000"
     id="rect546" />
  <rect
     x="24"
     y="24"
     width="1"
     height="1"
     style="fill:#000000"
     id="rect548" />
  <rect
     x="25"
     y="24"
     width="1"
     height="1"
     style="fill:#000000"
     id="rect550" />
  <rect
     x="26"
     y="24"
     width="1"
     height="1"
     style="fill:#000000"
     id="rect552" />
  <rect
     x="27"
     y="24"
     width="1"
     height="1"
     style="fill:#000000"
     id="rect554" />
  <rect
     x="28"
     y="24"
     width="1"
     height="1"
     style="fill:#000000"
     id="rect556" />
  <rect
     x="4"
     y="25"
     width="1"
     height="1"
     style="fill:#000000"
     id="rect558" />
  <rect
     x="6"
     y="25"
     width="1"
     height="1"
     style="fill:#000000"
     id="rect560" />
  <rect
     x="7"
     y="25"
     width="1"
     height="1"
     style="fill:#000000"
     id="rect562" />
  <rect
     x="8"
     y="25"
     width="1"
     height="1"
     style="fill:#000000"
     id="rect564" />
  <rect
     x="10"
     y="25"
     width="1"
     height="1"
     style="fill:#000000"
     id="rect566" />
  <rect
     x="12"
     y="25"
     width="1"
     height="1"
     style="fill:#000000"
     id="rect568" />
  <rect
     x="13"
     y="25"
     width="1"
     height="1"
     style="fill:#000000"
     id="rect570" />
  <rect
     x="14"
     y="25"
     width="1"
     height="1"
     style="fill:#000000"
     id="rect572" />
  <rect
     x="16"
     y="25"
     width="1"
     height="1"
     style="fill:#000000"
     id="rect574" />
  <rect
     x="17"
     y="25"
     width="1"
     height="1"
     style="fill:#000000"
     id="rect576" />
  <rect
     x="19"
     y="25"
     width="1"
     height="1"
     style="fill:#000000"
     id="rect578" />
  <rect
     x="20"
     y="25"
     width="1"
     height="1"
     style="fill:#000000"
     id="rect580" />
  <rect
     x="21"
     y="25"
     width="1"
     height="1"
     style="fill:#000000"
     id="rect582" />
  <rect
     x="22"
     y="25"
     width="1"
     height="1"
     style="fill:#000000"
     id="rect584" />
  <rect
     x="24"
     y="25"
     width="1"
     height="1"
     style="fill:#000000"
     id="rect586" />
  <rect
     x="26"
     y="25"
     width="1"
     height="1"
     style="fill:#000000"
     id="rect588" />
  <rect
     x="27"
     y="25"
     width="1"
     height="1"
     style="fill:#000000"
     id="rect590" />
  <rect
     x="28"
     y="25"
     width="1"
     height="1"
     style="fill:#000000"
     id="rect592" />
  <rect
     x="4"
     y="26"
     width="1"
     height="1"
     style="fill:#000000"
     id="rect594" />
  <rect
     x="6"
     y="26"
     width="1"
     height="1"
     style="fill:#000000"
     id="rect596" />
  <rect
     x="7"
     y="26"
     width="1"
     height="1"
     style="fill:#000000"
     id="rect598" />
  <rect
     x="8"
     y="26"
     width="1"
     height="1"
     style="fill:#000000"
     id="rect600" />
  <rect
     x="10"
     y="26"
     width="1"
     height="1"
     style="fill:#000000"
     id="rect602" />
  <rect
     x="12"
     y="26"
     width="1"
     height="1"
     style="fill:#000000"
     id="rect604" />
  <rect
     x="13"
     y="26"
     width="1"
     height="1"
     style="fill:#000000"
     id="rect606" />
  <rect
     x="14"
     y="26"
     width="1"
     height="1"
     style="fill:#000000"
     id="rect608" />
  <rect
     x="17"
     y="26"
     width="1"
     height="1"
     style="fill:#000000"
     id="rect610" />
  <rect
     x="18"
     y="26"
     width="1"
     height="1"
     style="fill:#000000"
     id="rect612" />
  <rect
     x="20"
     y="26"
     width="1"
     height="1"
     style="fill:#000000"
     id="rect614" />
  <rect
     x="23"
     y="26"
     width="1"
     height="1"
     style="fill:#000000"
     id="rect616" />
  <rect
     x="26"
     y="26"
     width="1"
     height="1"
     style="fill:#000000"
     id="rect618" />
  <rect
     x="28"
     y="26"
     width="1"
     height="1"
     style="fill:#000000"
     id="rect620" />
  <rect
     x="4"
     y="27"
     width="1"
     height="1"
     style="fill:#000000"
     id="rect622" />
  <rect
     x="10"
     y="27"
     width="1"
     height="1"
     style="fill:#000000"
     id="rect624" />
  <rect
     x="12"
     y="27"
     width="1"
     height="1"
     style="fill:#000000"
     id="rect626" />
  <rect
     x="13"
     y="27"
     width="1"
     height="1"
     style="fill:#000000"
     id="rect628" />
  <rect
     x="14"
     y="27"
     width="1"
     height="1"
     style="fill:#000000"
     id="rect630" />
  <rect
     x="16"
     y="27"
     width="1"
     height="1"
     style="fill:#000000"
     id="rect632" />
  <rect
     x="17"
     y="27"
     width="1"
     height="1"
     style="fill:#000000"
     id="rect634" />
  <rect
     x="19"
     y="27"
     width="1"
     height="1"
     style="fill:#000000"
     id="rect636" />
  <rect
     x="20"
     y="27"
     width="1"
     height="1"
     style="fill:#000000"
     id="rect638" />
  <rect
     x="21"
     y="27"
     width="1"
     height="1"
     style="fill:#000000"
     id="rect640" />
  <rect
     x="22"
     y="27"
     width="1"
     height="1"
     style="fill:#000000"
     id="rect642" />
  <rect
     x="23"
     y="27"
     width="1"
     height="1"
     style="fill:#000000"
     id="rect644" />
  <rect
     x="24"
     y="27"
     width="1"
     height="1"
     style="fill:#000000"
     id="rect646" />
  <rect
     x="25"
     y="27"
     width="1"
     height="1"
     style="fill:#000000"
     id="rect648" />
  <rect
     x="28"
     y="27"
     width="1"
     height="1"
     style="fill:#000000"
     id="rect650" />
  <rect
     x="4"
     y="28"
     width="1"
     height="1"
     style="fill:#000000"
     id="rect652" />
  <rect
     x="5"
     y="28"
     width="1"
     height="1"
     style="fill:#000000"
     id="rect654" />
  <rect
     x="6"
     y="28"
     width="1"
     height="1"
     style="fill:#000000"
     id="rect656" />
  <rect
     x="7"
     y="28"
     width="1"
     height="1"
     style="fill:#000000"
     id="rect658" />
  <rect
     x="8"
     y="28"
     width="1"
     height="1"
     style="fill:#000000"
     id="rect660" />
  <rect
     x="9"
     y="28"
     width="1"
     height="1"
     style="fill:#000000"
     id="rect662" />
  <rect
     x="10"
     y="28"
     width="1"
     height="1"
     style="fill:#000000"
     id="rect664" />
  <rect
     x="12"
     y="28"
     width="1"
     height="1"
     style="fill:#000000"
     id="rect666" />
  <rect
     x="13"
     y="28"
     width="1"
     height="1"
     style="fill:#000000"
     id="rect668" />
  <rect
     x="14"
     y="28"
     width="1"
     height="1"
     style="fill:#000000"
     id="rect670" />
  <rect
     x="16"
     y="28"
     width="1"
     height="1"
     style="fill:#000000"
     id="rect672" />
  <rect
     x="18"
     y="28"
     width="1"
     height="1"
     style="fill:#000000"
     id="rect674" />
  <rect
     x="19"
     y="28"
     width="1"
     height="1"
     style="fill:#000000"
     id="rect676" />
  <rect
     x="22"
     y="28"
     width="1"
     height="1"
     style="fill:#000000"
     id="rect678" />
  <rect
     x="23"
     y="28"
     width="1"
     height="1"
     style="fill:#000000"
     id="rect680" />
  <rect
     x="24"
     y="28"
     width="1"
     height="1"
     style="fill:#000000"
     id="rect682" />
  <rect
     x="25"
     y="28"
     width="1"
     height="1"
     style="fill:#000000"
     id="rect684" />
  <rect
     x="26"
     y="28"
     width="1"
     height="1"
     style="fill:#000000"
     id="rect686" />
  <rect
     x="27"
     y="28"
     width="1"
     height="1"
     style="fill:#000000"
     id="rect688" />
  <rect
     x="28"
     y="28"
     width="1"
     height="1"
     style="fill:#000000"
     id="rect690" />
</svg>
