<?xml version="1.0" encoding="UTF-8" standalone="no"?>
<!-- Created with Inkscape (http://www.inkscape.org/) -->

<svg
   xmlns:dc="http://purl.org/dc/elements/1.1/"
   xmlns:cc="http://creativecommons.org/ns#"
   xmlns:rdf="http://www.w3.org/1999/02/22-rdf-syntax-ns#"
   xmlns:svg="http://www.w3.org/2000/svg"
   xmlns="http://www.w3.org/2000/svg"
   xmlns:sodipodi="http://sodipodi.sourceforge.net/DTD/sodipodi-0.dtd"
   xmlns:inkscape="http://www.inkscape.org/namespaces/inkscape"
   width="600.00061"
   height="302.28629"
   viewBox="0 0 724.84674 302.28639"
   id="svg2"
   version="1.1"
   inkscape:version="0.91 r13725"
   sodipodi:docname="Casual Coding.svg"
   inkscape:export-filename="/Users/MacNerd/My Programs/Open Source Club/logo/Logo Fall 2016.png"
   inkscape:export-xdpi="200"
   inkscape:export-ydpi="200">
  <defs
     id="defs4">
    <inkscape:perspective
       sodipodi:type="inkscape:persp3d"
       inkscape:vp_x="0 : 3.8250016 : 1"
       inkscape:vp_y="0 : 10.000003 : 0"
       inkscape:vp_z="87167783 : 3.8250016 : 1"
       inkscape:persp3d-origin="43583894 : 2.550001 : 1"
       id="perspective4269" />
  </defs>
  <sodipodi:namedview
     id="base"
     pagecolor="#ffffff"
     bordercolor="#666666"
     borderopacity="0"
     inkscape:pageopacity="0.0"
     inkscape:pageshadow="2"
     inkscape:zoom="1.3217737"
     inkscape:cx="90.048669"
     inkscape:cy="173.21154"
     inkscape:document-units="px"
     inkscape:current-layer="layer1"
     showgrid="true"
     inkscape:showpageshadow="false"
     inkscape:window-width="1440"
     inkscape:window-height="852"
     inkscape:window-x="0"
     inkscape:window-y="0"
     inkscape:window-maximized="1"
     units="in"
     showguides="false"
     fit-margin-top="0"
     fit-margin-left="0"
     fit-margin-right="0"
     fit-margin-bottom="0">
    <inkscape:grid
       type="xygrid"
       id="grid4257"
       originx="33400200"
       originy="-5.9664949e+08" />
  </sodipodi:namedview>
  <metadata
     id="metadata7">
    <rdf:RDF>
      <cc:Work
         rdf:about="">
        <dc:format>image/svg+xml</dc:format>
        <dc:type
           rdf:resource="http://purl.org/dc/dcmitype/StillImage" />
        <dc:title></dc:title>
        <cc:license
           rdf:resource="https://creativecommons.org/licenses/by-sa/4.0/" />
      </cc:Work>
    </rdf:RDF>
  </metadata>
  <g
     inkscape:label="Layer 1"
     inkscape:groupmode="layer"
     id="layer1"
     transform="translate(462.06508,16465.184)">
    <text
       xml:space="preserve"
       style="font-style:normal;font-variant:normal;font-weight:normal;font-stretch:normal;font-size:12.5px;line-height:125%;font-family:sans-serif;-inkscape-font-specification:sans-serif;letter-spacing:0px;word-spacing:0px;fill:#000000;fill-opacity:1;stroke:none;stroke-width:1px;stroke-linecap:butt;stroke-linejoin:miter;stroke-opacity:1"
       x="-22.478155"
       y="-16635.521"
       id="text4680"
       sodipodi:linespacing="125%"><tspan
         sodipodi:role="line"
         id="tspan4682"
         x="-22.478155"
         y="-16635.521" /></text>
    <flowRoot
       xml:space="preserve"
       id="flowRoot4236"
       style="font-style:normal;font-weight:normal;font-size:12.5px;line-height:125%;font-family:sans-serif;letter-spacing:0px;word-spacing:0px;fill:#000000;fill-opacity:1;stroke:none;stroke-width:1px;stroke-linecap:butt;stroke-linejoin:miter;stroke-opacity:1"
       transform="translate(1,-491.37714)"><flowRegion
         id="flowRegion4238"><rect
           id="rect4240"
           width="111.59029"
           height="81.759224"
           x="-884.98834"
           y="-16597.785" /></flowRegion><flowPara
         id="flowPara4242" /></flowRoot>    <text
       xml:space="preserve"
       style="font-style:normal;font-weight:normal;font-size:12.5px;line-height:125%;font-family:sans-serif;letter-spacing:0px;word-spacing:0px;fill:#3e82ff;fill-opacity:1;stroke:none;stroke-width:1px;stroke-linecap:butt;stroke-linejoin:miter;stroke-opacity:1"
       x="-699.79858"
       y="-16356.376"
       id="text4295"
       sodipodi:linespacing="125%"
       inkscape:export-filename="/Users/MacNerd/My Programs/Open Source Club/logo/images/test.png"
       inkscape:export-xdpi="200"
       inkscape:export-ydpi="200"><tspan
         sodipodi:role="line"
         id="tspan4297"
         x="-699.79858"
         y="-16356.376"
         style="font-style:normal;font-variant:normal;font-weight:normal;font-stretch:normal;font-size:137.5px;font-family:sans-serif;-inkscape-font-specification:sans-serif;fill:#3e82ff;fill-opacity:1">&lt;</tspan></text>
    <text
       xml:space="preserve"
       style="font-style:normal;font-weight:normal;font-size:12.5px;line-height:125%;font-family:sans-serif;letter-spacing:0px;word-spacing:0px;fill:#3e82ff;fill-opacity:1;stroke:none;stroke-width:1px;stroke-linecap:butt;stroke-linejoin:miter;stroke-opacity:1"
       x="-399.38895"
       y="-16334.927"
       id="text4299"
       sodipodi:linespacing="125%"
       inkscape:export-filename="/Users/MacNerd/My Programs/Open Source Club/logo/images/test.png"
       inkscape:export-xdpi="200"
       inkscape:export-ydpi="200"><tspan
         sodipodi:role="line"
         id="tspan4301"
         x="-399.38895"
         y="-16334.927"
         style="font-style:normal;font-variant:normal;font-weight:normal;font-stretch:normal;font-size:137.5px;font-family:sans-serif;-inkscape-font-specification:sans-serif;fill:#3e82ff;fill-opacity:1">asual</tspan></text>
    <text
       xml:space="preserve"
       style="font-style:normal;font-weight:normal;font-size:12.5px;line-height:125%;font-family:sans-serif;letter-spacing:0px;word-spacing:0px;fill:#ff900c;fill-opacity:1;stroke:none;stroke-width:1px;stroke-linecap:butt;stroke-linejoin:miter;stroke-opacity:1"
       x="-505.88309"
       y="-16171.45"
       id="text4303"
       sodipodi:linespacing="125%"
       inkscape:export-filename="/Users/MacNerd/My Programs/Open Source Club/logo/images/test.png"
       inkscape:export-xdpi="200"
       inkscape:export-ydpi="200"><tspan
         sodipodi:role="line"
         id="tspan4305"
         x="-505.88309"
         y="-16171.45"
         style="font-style:normal;font-variant:normal;font-weight:normal;font-stretch:normal;font-size:137.5px;font-family:sans-serif;-inkscape-font-specification:sans-serif;letter-spacing:0px;fill:#ff900c;fill-opacity:1">oding<tspan
   style="font-style:normal;font-variant:normal;font-weight:normal;font-stretch:normal;font-family:sans-serif;-inkscape-font-specification:sans-serif;letter-spacing:0px;fill:#3e82ff;fill-opacity:1"
   id="tspan4307">/&gt;</tspan></tspan></text>
    <text
       xml:space="preserve"
       style="font-style:normal;font-weight:normal;font-size:48.32306671px;line-height:125%;font-family:sans-serif;letter-spacing:0px;word-spacing:0px;fill:#000000;fill-opacity:1;stroke:none;stroke-width:1px;stroke-linecap:butt;stroke-linejoin:miter;stroke-opacity:1"
       x="-489.34418"
       y="-16598.318"
       id="text4150"
       sodipodi:linespacing="125%"><tspan
         sodipodi:role="line"
         id="tspan4152"
         x="-489.34418"
         y="-16598.318" /></text>
    <path
       style="opacity:1;fill:#ff900c;fill-opacity:1"
       d="m -491.43642,-16498.37 a 99.209678,99.206649 0 0 0 -99.21094,99.207 99.209678,99.206649 0 0 0 99.21094,99.206 99.209678,99.206649 0 0 0 99.20858,-99.206 99.209678,99.206649 0 0 0 -99.20858,-99.207 z m 6.76004,28.952 c 7.90441,0 15.33691,1.062 22.29751,3.185 7.01958,2.065 13.59558,5.191 19.73034,9.379 l 0,18.846 c -6.01678,-5.604 -12.44649,-9.792 -19.28911,-12.565 -6.78364,-2.772 -14.0085,-4.157 -21.67696,-4.157 -15.10095,0 -26.66263,4.629 -34.68501,13.89 -8.02239,9.202 -12.03358,22.534 -12.03358,39.994 0,17.402 4.01119,30.733 12.03358,39.994 8.02238,9.202 19.58406,13.803 34.68501,13.803 7.66846,0 14.89332,-1.385 21.67696,-4.157 6.84262,-2.773 13.27233,-6.961 19.28911,-12.565 l 0,18.669 c -6.25274,4.247 -12.88772,7.433 -19.90731,9.556 -6.9606,2.124 -14.33411,3.185 -22.12054,3.185 -19.99697,0 -35.7468,-6.104 -47.24949,-18.314 -11.50268,-12.27 -17.2552,-28.994 -17.2552,-50.171 0,-21.235 5.75252,-37.957 17.2552,-50.168 11.50269,-12.269 27.25252,-18.404 47.24949,-18.404 z"
       id="path4512"
       inkscape:connector-curvature="0" />
    <path
       style="opacity:1;fill:#3e82ff;fill-opacity:1"
       d="m -602.12383,-16328.395 a 99.209678,99.204832 0 0 0 -99.21094,99.204 99.209678,99.204832 0 0 0 99.21094,99.206 99.209678,99.204832 0 0 0 99.20858,-99.206 99.209678,99.204832 0 0 0 -99.20858,-99.204 z m 6.80959,29.308 c 7.90441,0 15.33691,1.061 22.29751,3.185 7.01959,2.065 13.59794,5.191 19.73271,9.379 l 0,18.846 c -6.01679,-5.604 -12.4465,-9.792 -19.28912,-12.565 -6.78363,-2.772 -14.01086,-4.157 -21.67931,-4.157 -15.10096,0 -26.66263,4.629 -34.68502,13.89 -8.02238,9.202 -12.03357,22.534 -12.03357,39.994 0,17.402 4.01119,30.733 12.03357,39.994 8.02239,9.202 19.58406,13.803 34.68502,13.803 7.66845,0 14.89568,-1.385 21.67931,-4.157 6.84262,-2.773 13.27233,-6.961 19.28912,-12.565 l 0,18.669 c -6.25274,4.247 -12.89009,7.432 -19.90967,9.556 -6.9606,2.124 -14.33412,3.185 -22.12055,3.185 -19.99697,0 -35.7468,-6.104 -47.24948,-18.314 -11.50269,-12.27 -17.25285,-28.994 -17.25285,-50.171 0,-21.236 5.75016,-37.958 17.25285,-50.168 11.50268,-12.27 27.25251,-18.404 47.24948,-18.404 z"
       id="path4478"
       inkscape:connector-curvature="0" />
  </g>
</svg>
